<?xml version="1.0" encoding="UTF-8"?> <!-- Generator: Adobe Illustrator 23.1.1, SVG Export Plug-In . SVG Version: 6.00 Build 0) --> <svg xmlns="http://www.w3.org/2000/svg" fill="#fff" xmlns:xlink="http://www.w3.org/1999/xlink" id="icon" x="0px" y="0px" viewBox="0 0 1000 1000" style="enable-background:new 0 0 1000 1000;" xml:space="preserve"> <path d="M950.6,500L804.4,373.9l14.2-192.5l-192.5,14.2L500,49.4L373.9,195.6l-192.5-14.2l14.2,192.5L49.4,500l146.2,126.1 l-14.2,192.5l192.5-14.2L500,950.6l126.1-146.2l192.5,14.2l-14.2-192.5L950.6,500z M609,763L500,889.4L391,763l-166.4,12.3L237,609 L110.6,500L237,391l-12.3-166.4L391,237l109-126.3L609,237l166.4-12.3L763,391l126.3,109L763,609l12.3,166.4L609,763z M500,240 c-143.6,0-260,116.4-260,260s116.4,260,260,260s260-116.4,260-260S643.6,240,500,240z M500,720c-121.5,0-220-98.5-220-220 s98.5-220,220-220s220,98.5,220,220S621.5,720,500,720z"></path> </svg> 