<?xml version="1.0" encoding="UTF-8"?> <!-- Generator: Adobe Illustrator 23.1.1, SVG Export Plug-In . SVG Version: 6.00 Build 0) --> <svg xmlns="http://www.w3.org/2000/svg" fill="#fff" xmlns:xlink="http://www.w3.org/1999/xlink" id="icon" x="0px" y="0px" viewBox="0 0 1000 1000" style="enable-background:new 0 0 1000 1000;" xml:space="preserve"> <path d="M804.1,523.4C826.6,494.9,840,459,840,420c0-67.6-40.3-127.8-101.6-153.9c-3.4-37.3-19.6-71.9-46.5-98.6 c-30.2-30-70.3-46.6-112.9-46.6c-44.9,0-92.2,20.2-121.5,55.9c-27.2-24.2-62.3-37.7-99.4-37.7c-69.7,0-129.6,48.1-145.7,114.3 C127.1,260.9,60,332.8,60,420c0,81.1,58,148.8,134.6,164.1c-30.6,38-37.3,81.2-37.3,105.9c0,93.7,76.3,170,170,170H770 c93.7,0,170-76.3,170-170C940,603.2,871.2,534.7,804.1,523.4z M100,420c0-70.2,58-135,146.8-127.3c0-66.3,56-113.6,111.3-113.6 c33.5,0,57.8,10.3,103.7,49.8c35.4-48.6,75.2-68,117.2-68c31.9,0,62,12.4,84.6,34.9c22.6,22.5,35.4,48.7,35.4,98.8 C765.2,310.4,800,365,800,420c0,23-6.2,44.7-16.9,63.3c-24.4-53.9-78.6-91.1-141.3-91.1c-32.9,0-64.2,10.2-90.4,29 c-12-17.3-54-69-131.7-69c-88.2,0-169.7,74.4-158.6,181.1c-9.3,4.2-17.7,8.9-25.4,13.9C152.5,546.1,100,489.5,100,420z M770,820 H327.3c-71.7,0-130-58.3-130-130c0-52.5,31.5-111.4,108.7-132c-27.3-90.2,32.5-165.7,113.8-165.7c55.1,0,95.3,32.4,121.6,86.9 c35.9-32.6,67.2-46.9,100.5-46.9c61.2,0,118.3,48.6,115.8,127.1C847.3,561,900,616.8,900,690C900,761.7,841.7,820,770,820z"></path> </svg> 