<?xml version="1.0" encoding="UTF-8"?> <!-- Generator: Adobe Illustrator 23.1.1, SVG Export Plug-In . SVG Version: 6.00 Build 0) --> <svg  fill="#fff" xmlns="http://www.w3.org/2000/svg" xmlns:xlink="http://www.w3.org/1999/xlink" id="icon" x="0px" y="0px" viewBox="0 0 1000 1000" style="enable-background:new 0 0 1000 1000;" xml:space="preserve"> <path d="M500,750c-49.6,0-90,40.4-90,90s40.4,90,90,90s90-40.4,90-90S549.6,750,500,750z M500,890c-27.6,0-50-22.4-50-50 s22.4-50,50-50s50,22.4,50,50S527.6,890,500,890z M220,710c-49.6,0-90,40.4-90,90s40.4,90,90,90s90-40.4,90-90S269.6,710,220,710z M220,850c-27.6,0-50-22.4-50-50s22.4-50,50-50s50,22.4,50,50S247.6,850,220,850z M780,710c-49.6,0-90,40.4-90,90s40.4,90,90,90 s90-40.4,90-90S829.6,710,780,710z M780,850c-27.6,0-50-22.4-50-50s22.4-50,50-50s50,22.4,50,50S807.6,850,780,850z M824.9,292.3 c9.6-94.9-65.6-206.8-191.2-206.8c-64.8,0-125.7,36.1-152.3,75.2c-23.7-11.8-49.9-18-76.8-18c-81.2,0-150.8,56.6-168.4,134.3 C137.7,285,60,367.7,60,468.2C60,574,146,660,251.8,660h496.4C853.9,660,940,574,940,468.2C940,391.3,894.4,322.6,824.9,292.3z M748.2,620H251.8C168.1,620,100,551.9,100,468.2s60.8-151.8,170.7-151.8c0-76.7,67.1-133.6,133.9-133.6c25.6,0,60.9,7.7,88.1,28.3 c25.6-41.2,66.5-85.5,141-85.5c98.1,0,171.7,91,147,193.4C859.8,338.7,900,403,900,468.2C900,551.9,831.9,620,748.2,620z"></path> </svg> 