<?xml version="1.0" encoding="UTF-8"?> <!-- Generator: Adobe Illustrator 23.1.1, SVG Export Plug-In . SVG Version: 6.00 Build 0) --> <svg fill="#fff" xmlns="http://www.w3.org/2000/svg" xmlns:xlink="http://www.w3.org/1999/xlink" id="icon" x="0px" y="0px" viewBox="0 0 1000 1000" style="enable-background:new 0 0 1000 1000;" xml:space="preserve"> <path d="M360,280H160v-40h200V280z M540,360H40v40h500V360z M420,280h360c22.1,0,40,17.9,40,40s-17.9,40-40,40H600v40h180 c44.1,0,80-35.9,80-80s-35.9-80-80-80H420V280z M800,600H680v40h120c22.1,0,40,17.9,40,40s-17.9,40-40,40H440v40h360 c44.1,0,80-35.9,80-80S844.1,600,800,600z M340,520h400v-40H340V520z M800,480v40h160v-40H800z M380,720H140v40h240V720z M260,880 h320v-40H260V880z M640,880h120v-40H640V880z M720,120H260v40h460V120z M620,640v-40H180c-22.1,0-40-17.9-40-40s17.9-40,40-40h100 v-40H180c-44.1,0-80,35.9-80,80s35.9,80,80,80H620z"></path> </svg> 