<?xml version="1.0" encoding="UTF-8"?> <!-- Generator: Adobe Illustrator 23.1.1, SVG Export Plug-In . SVG Version: 6.00 Build 0) --> <svg fill="#fff" xmlns="http://www.w3.org/2000/svg" xmlns:xlink="http://www.w3.org/1999/xlink" id="icon" x="0px" y="0px" viewBox="0 0 1000 1000" style="enable-background:new 0 0 1000 1000;" xml:space="preserve"> <path d="M905.4,368.7c-22.2-52.4-53.9-99.5-94.3-139.9s-87.5-72.1-139.9-94.3c-48.1-20.4-98.9-31.8-151.3-34.1V40h-40v60.5 c-52.3,2.3-103.1,13.8-151.3,34.1c-52.4,22.2-99.5,53.9-139.9,94.3s-72.1,87.5-94.3,139.9C71.6,423,60,480.6,60,540v20h32.4 c15.4-29.5,44-43,71.6-43s59.1,14.8,71.6,43h24.8c13.9-24.4,44-43,71.6-43s56.5,13.3,71.6,43h22.7c13.5-21.8,33.5-35.1,53.7-40.3 V860c0,33.1-26.9,60-60,60s-60-26.9-60-60v-40h-40v40c0,55.1,44.9,100,100,100s100-44.9,100-100V519.7c20.1,5.3,40.2,18.5,53.7,40.3 h22.7c15.1-29.7,44-43,71.6-43s57.7,18.6,71.6,43h24.8c12.5-28.2,44-43,71.6-43s56.2,13.5,71.6,43H940v-20 C940,480.6,928.4,423,905.4,368.7z M836,478c-31.1,0-61.9,10.1-84,34.7c-21.8-23.4-54.1-34.7-84-34.7c-29.4,0-60.1,10.6-83,33.6 C563.3,489.3,535.4,478,500,478c-35.4,0-63.3,11.2-85.1,33.6c-22.8-23-53.5-33.6-83-33.6c-29.9,0-62.2,11.3-84,34.7 c-22.1-24.5-52.9-34.7-84-34.7c-21.1,0-43.4,6.8-63.4,20.7c4.4-36.9,16-79.3,30.8-114.4c20.1-47.6,49-90.4,85.7-127.2 c36.7-36.7,79.5-65.6,127.2-85.7C393.6,150.6,446,140,500,140s106.4,10.6,155.7,31.4c47.6,20.1,90.4,49,127.2,85.7 c36.7,36.7,65.6,79.5,85.7,127.2c14.8,35.1,26.4,77.5,30.8,114.4C879.4,484.8,857.1,478,836,478z"></path> </svg> 