<?xml version="1.0" encoding="UTF-8"?> <!-- Generator: Adobe Illustrator 23.1.1, SVG Export Plug-In . SVG Version: 6.00 Build 0) --> <svg fill="#fff" xmlns="http://www.w3.org/2000/svg" xmlns:xlink="http://www.w3.org/1999/xlink" id="icon" x="0px" y="0px" viewBox="0 0 1000 1000" style="enable-background:new 0 0 1000 1000;" xml:space="preserve"> <path d="M888.4,387.3l20-34.6L851.8,320l56.6-32.7l-20-34.6l-56.6,32.7V220h-40v88.5l-46.6,26.9V270h-40v88.5L640,396.1l-120-69.3 v-75.2l76.6-44.2l-20-34.6L520,205.4v-53.8l76.6-44.2l-20-34.6L520,105.4V40h-40v65.4l-56.6-32.7l-20,34.6l76.6,44.2v53.8 l-56.6-32.7l-20,34.6l76.6,44.2v75.2l-118.7,68.5l-66.4-38V270h-40v64.5l-46.6-26.6V220h-40v65l-56.7-32.4l-19.8,34.7l56.8,32.5 l-56.9,32.8l20,34.6l77.1-44.5l46.8,26.8l-57.3,33.1l20,34.6l77.5-44.8l64.2,36.7v140l-65.2,37.6l-76.6-44.2l-20,34.6l56.6,32.7 l-46.6,26.9l-76.6-44.2l-20,34.6l56.6,32.7l-56.6,32.7l20,34.6l56.6-32.7V780h40v-88.5l46.6-26.9V730h40v-88.5l65.2-37.6l120,69.3 v75.2l-76.6,44.2l20,34.6l56.6-32.7v53.8l-76.6,44.2l20,34.6l56.6-32.7V960h40v-65.4l56.6,32.7l20-34.6L520,848.5v-53.8l56.6,32.7 l20-34.6L520,748.5v-75.2l120-69.3l65.2,37.6V730h40v-65.4l46.6,26.9V780h40v-65.4l56.6,32.7l20-34.6L851.8,680l56.6-32.7l-20-34.6 l-76.6,44.2L765.2,630l56.6-32.7l-20-34.6l-76.6,44.2L660,569.3V430.7l65.2-37.6l76.6,44.2l20-34.6L765.2,370l46.6-26.9L888.4,387.3 z M620,569.3l-120,69.3l-120-69.3V430.7l120-69.3l120,69.3V569.3z"></path> </svg> 