<!--?xml version="1.0" encoding="utf-8"?-->
<!-- Generator: Adobe Illustrator 18.1.1, SVG Export Plug-In . SVG Version: 6.00 Build 0)  -->

<svg version="1.1" id="_x32_" xmlns="http://www.w3.org/2000/svg" xmlns:xlink="http://www.w3.org/1999/xlink" x="0px" y="0px" viewBox="0 0 512 512" style="width: 256px; height: 256px; opacity: 1;" xml:space="preserve">
<style type="text/css">
	.st0{fill:#4B4B4B;}
</style>
<g>
	<path class="st0" d="M359.88,269.332c0.623-2.026,1.052-4.138,1.052-6.376c0-4.139-1.216-7.966-3.204-11.271
		c8.855-16.361,13.999-35.052,13.999-54.936c-0.007-17.46-3.983-33.953-10.905-48.794l18.029,4.864l9.533-35.341l-44.921-12.105
		l19.954-74.009L247.14,0l-19.962,74.009L182.25,61.881l-9.529,35.348l17.152,4.63c-29.955,20.912-49.597,55.583-49.601,94.891
		c-0.004,20.016,5.199,38.824,14.171,55.263c-1.875,3.227-3.028,6.937-3.028,10.944c0,2.136,0.402,4.162,0.971,6.111
		c-24.736,25.753-40.053,60.704-40.049,99.271C112.345,447.687,176.65,511.993,255.994,512
		c79.349-0.007,143.654-64.313,143.669-143.661C399.663,329.912,384.464,295.07,359.88,269.332z M191.101,131.852
		c9.147-9.143,20.223-16.26,32.511-20.898l103.593,27.936c12.862,15.8,20.562,35.879,20.577,57.86
		c-0.007,16.096-4.2,31.132-11.473,44.257H175.691c-7.276-13.126-11.47-28.162-11.474-44.257
		C164.225,171.371,174.471,148.501,191.101,131.852z M340.651,452.988c-21.708,21.684-51.562,35.06-84.657,35.067
		c-33.091-0.007-62.949-13.383-84.648-35.067c-21.684-21.7-35.056-51.553-35.064-84.649c0.004-32.698,13.251-62.091,34.53-83.69
		c0.846,0.101,1.68,0.257,2.553,0.257h99.77v68.233c0,7.499,6.072,13.578,13.57,13.578h30.726c7.499,0,13.57-6.08,13.57-13.578
		v-68.233h7.982c0.764,0,1.489-0.149,2.237-0.226c21.256,21.598,34.491,50.976,34.498,83.658
		C375.703,401.435,362.336,431.288,340.651,452.988z" style="fill: rgb(255, 255, 255);"></path>
	<circle class="st0" cx="214.27" cy="171.168" r="12.97" style="fill: rgb(255, 255, 255);"></circle>
	<circle class="st0" cx="293.088" cy="171.168" r="12.97" style="fill: rgb(255, 255, 255);"></circle>
	<path class="st0" d="M217.906,214.116c-0.043-0.156,0-0.312-0.035-0.468c-0.047-0.156-0.16-0.273-0.202-0.43L217.906,214.116z" style="fill: rgb(255, 255, 255);"></path>
	<path class="st0" d="M217.871,213.649c1.36,4.186,5.499,6.858,9.907,6.188l31.388-4.77c0,0,7.483-14.966-7.483-21.95
		l-28.107,10.149C219.31,204.809,216.944,209.252,217.871,213.649z" style="fill: rgb(255, 255, 255);"></path>
</g>
</svg>
