<!--?xml version="1.0" encoding="utf-8"?-->
<!-- Generator: Adobe Illustrator 18.1.1, SVG Export Plug-In . SVG Version: 6.00 Build 0)  -->

<svg version="1.1"  id="_x31_0" xmlns="http://www.w3.org/2000/svg" xmlns:xlink="http://www.w3.org/1999/xlink" x="0px" y="0px" viewBox="0 0 512 512" style="width: 256px; height: 256px; opacity: 1;" xml:space="preserve">
<style type="text/css">
	.st0{fill:#ffffff;}
</style>
<g >
	<path class="st0" d="M385.293,234.367c-1.953-11.691-5.531-22.676-10.242-32.957c-0.14-0.313-0.269-0.629-0.414-0.938
		c-1.371-2.938-2.859-5.79-4.434-8.59c-0.442-0.79-0.883-1.574-1.336-2.356c-1.438-2.434-2.938-4.812-4.519-7.137
		c-0.754-1.117-1.539-2.21-2.329-3.301c-1.445-1.984-2.902-3.945-4.449-5.839c-1.133-1.395-2.328-2.731-3.516-4.074
		c-1.371-1.543-2.722-3.102-4.164-4.574c-1.633-1.684-3.351-3.262-5.07-4.851c-1.152-1.063-2.262-2.172-3.453-3.192
		c-2.633-2.262-5.367-4.394-8.172-6.442c-0.398-0.289-0.766-0.617-1.164-0.902c-3.262-2.321-6.637-4.489-10.106-6.504
		c-1.179-0.688-2.418-1.262-3.617-1.914c-2.242-1.211-4.477-2.426-6.793-3.504c-1.966-0.922-3.989-1.707-5.997-2.531
		c-1.566-0.637-3.113-1.305-4.702-1.878c-2.528-0.926-5.106-1.711-7.696-2.481c-1.066-0.313-2.121-0.645-3.199-0.93
		c-3.031-0.817-6.102-1.492-9.206-2.09c-0.606-0.114-1.211-0.234-1.821-0.34c-3.488-0.622-7.011-1.094-10.57-1.426
		c-0.191-0.019-0.382-0.034-0.57-0.05c-10.91-0.977-22.082-0.75-33.39,1.141c-71.406,11.949-119.602,79.523-107.652,150.926
		c1.953,11.691,5.531,22.68,10.242,32.965c0.141,0.305,0.27,0.618,0.41,0.926c1.379,2.942,2.867,5.801,4.446,8.61
		c0.438,0.778,0.871,1.554,1.32,2.324c1.442,2.446,2.95,4.832,4.535,7.164c0.75,1.106,1.523,2.184,2.305,3.266
		c1.453,2,2.926,3.973,4.481,5.879c1.117,1.375,2.293,2.687,3.461,4.012c1.386,1.566,2.762,3.144,4.218,4.64
		c1.598,1.645,3.289,3.192,4.973,4.75c1.187,1.098,2.328,2.238,3.554,3.289c2.551,2.192,5.207,4.254,7.922,6.242
		c0.48,0.351,0.93,0.754,1.414,1.098c3.246,2.313,6.606,4.465,10.058,6.477c1.262,0.734,2.59,1.355,3.879,2.05
		c2.156,1.16,4.305,2.332,6.531,3.371c2.008,0.942,4.078,1.75,6.137,2.59c1.519,0.618,3.019,1.262,4.562,1.825
		c2.558,0.934,5.168,1.73,7.79,2.507c1.034,0.305,2.058,0.626,3.105,0.902c3.059,0.825,6.157,1.508,9.29,2.11
		c0.578,0.11,1.152,0.222,1.73,0.324c3.511,0.626,7.05,1.098,10.633,1.434c0.176,0.02,0.347,0.031,0.523,0.047
		c10.914,0.981,22.098,0.754,33.41-1.137C349.039,373.344,397.242,305.774,385.293,234.367z" style="fill: #fff;"></path>
	<path class="st0" d="M492.297,236.297l-34.886,6.164c-7.477,0-13.539,6.062-13.539,13.539c0,7.481,6.062,13.543,13.539,13.543
		l34.886,6.164C503.18,275.707,512,266.886,512,256C512,245.117,503.18,236.297,492.297,236.297z" style="fill: #fff;"></path>
	<path class="st0" d="M54.594,242.457l-34.886-6.16C8.824,236.297,0,245.117,0,256c0,10.886,8.824,19.707,19.707,19.707
		l34.886-6.164c7.477,0,13.539-6.062,13.539-13.543C68.133,248.523,62.07,242.457,54.594,242.457z" style="fill: #fff;"></path>
	<path class="st0" d="M409.152,74.981l-20.308,29.031c-5.286,5.285-5.286,13.859,0,19.148c5.289,5.286,13.867,5.286,19.152,0
		l29.027-20.309c7.695-7.695,7.695-20.175,0-27.87C429.324,67.285,416.848,67.285,409.152,74.981z" style="fill: #fff;"></path>
	<path class="st0" d="M104.008,388.844l-29.024,20.308c-7.695,7.696-7.695,20.172,0,27.867c7.696,7.696,20.172,7.696,27.867,0
		l20.309-29.027c5.286-5.285,5.286-13.859,0-19.148C117.871,383.558,109.297,383.558,104.008,388.844z" style="fill: #fff;"></path>
	<path class="st0" d="M256,68.133c7.481,0,13.543-6.062,13.543-13.539l6.164-34.886C275.707,8.824,266.886,0,256,0
		c-10.883,0-19.703,8.824-19.703,19.707l6.164,34.886C242.461,62.07,248.523,68.133,256,68.133z" style="fill: #fff;"></path>
	<path class="st0" d="M256,443.871c-7.477,0-13.539,6.062-13.539,13.539l-6.164,34.886c0,10.883,8.82,19.703,19.703,19.703
		c10.886,0,19.707-8.82,19.707-19.703l-6.164-34.886C269.543,449.934,263.481,443.871,256,443.871z" style="fill: #fff;"></path>
	<path class="st0" d="M104.012,123.16c5.285,5.286,13.859,5.286,19.148,0c5.286-5.289,5.286-13.867,0-19.152l-20.309-29.027
		c-7.695-7.696-20.171-7.696-27.867,0c-7.695,7.695-7.695,20.175,0,27.87L104.012,123.16z" style="fill: #fff;"></path>
	<path class="st0" d="M407.992,388.844c-5.285-5.286-13.859-5.286-19.148,0c-5.286,5.289-5.286,13.863,0,19.152l20.308,29.023
		c7.696,7.696,20.172,7.696,27.871,0c7.695-7.695,7.695-20.171,0-27.867L407.992,388.844z" style="fill: #fff;"></path>
</g>
</svg>
