<?xml version="1.0" encoding="UTF-8"?> <!-- Generator: Adobe Illustrator 23.1.1, SVG Export Plug-In . SVG Version: 6.00 Build 0) --> <svg fill="#fff" xmlns="http://www.w3.org/2000/svg" xmlns:xlink="http://www.w3.org/1999/xlink" id="icon" x="0px" y="0px" viewBox="0 0 1000 1000" style="enable-background:new 0 0 1000 1000;" xml:space="preserve"> <path d="M840,730c0,71.7-58.3,130-130,130v0c-34.7,0-67.4-13.5-91.9-38.1l28.3-28.3c17,17,39.6,26.4,63.6,26.4v0 c49.6,0,90-40.4,90-90s-40.4-90-90-90H40v-40h670C781.7,600,840,658.3,840,730z M360,500H40v40h320V500z M580,320 c0-66.2-53.8-120-120-120c-32.1,0-62.2,12.5-84.9,35.1l28.3,28.3c15.1-15.1,35.2-23.4,56.6-23.4c44.1,0,80,35.9,80,80 s-35.9,80-80,80H40v40h420C526.2,440,580,386.2,580,320z M760,140c-53.4,0-103.6,20.8-141.4,58.6l28.3,28.3 C677.1,196.6,717.3,180,760,180c88.2,0,160,71.8,160,160s-71.8,160-160,160H420v40h340c110.3,0,200-89.7,200-200S870.3,140,760,140z "></path> </svg> 